<svg xmlns="http://www.w3.org/2000/svg" viewBox="0 0 32 32">
  <rect width="32" height="32" fill="#0a0a0a" rx="4"/>
  <rect x="4" y="6" width="24" height="20" fill="#1a1a1a" rx="2"/>
  <rect x="6" y="8" width="20" height="16" fill="#000" rx="1"/>
  <rect x="8" y="10" width="2" height="2" fill="#00ff41"/>
  <rect x="11" y="10" width="2" height="2" fill="#00ff41"/>
  <rect x="14" y="10" width="2" height="2" fill="#00ff41"/>
  <rect x="8" y="14" width="2" height="2" fill="#00ff41"/>
  <rect x="11" y="14" width="2" height="2" fill="#00ff41"/>
  <rect x="14" y="14" width="2" height="2" fill="#00ff41"/>
  <rect x="8" y="18" width="2" height="2" fill="#00ff41"/>
  <rect x="11" y="18" width="2" height="2" fill="#00ff41"/>
  <rect x="14" y="18" width="2" height="2" fill="#00ff41"/>
  <rect x="18" y="12" width="4" height="8" fill="#00ff41" rx="1"/>
  <rect x="20" y="14" width="2" height="2" fill="#0a0a0a"/>
  <rect x="20" y="18" width="2" height="2" fill="#0a0a0a"/>
</svg>